<?xml version="1.0" encoding="utf-8"?>
<!-- Generator: Adobe Illustrator 16.0.0, SVG Export Plug-In . SVG Version: 6.00 Build 0)  -->
<!DOCTYPE svg PUBLIC "-//W3C//DTD SVG 1.1//EN" "http://www.w3.org/Graphics/SVG/1.1/DTD/svg11.dtd">
<svg version="1.1" id="Layer_1" xmlns="http://www.w3.org/2000/svg" xmlns:xlink="http://www.w3.org/1999/xlink" x="0px" y="0px"
	 width="500px" height="125px" viewBox="0 0 500 125" enable-background="new 0 0 500 125" xml:space="preserve">
<g>
	<g>
		<g>
			<path fill="#0298E2" d="M91.25,82.007c14.422-19.637,12.762-47.389-4.996-65.152c-19.596-19.597-51.355-19.597-70.953,0
				c-19.6,19.6-19.6,51.36,0,70.956c17.76,17.76,45.518,19.421,65.145,4.989l4.006,4.001l10.805-10.794L91.25,82.007z M91.17,62.355
				c-1.756,7.109-5.412,13.846-10.971,19.401c-16.25,16.25-42.594,16.253-58.844,0c-6.918-6.914-10.879-15.655-11.912-24.674
				l-0.248-3.49c-0.334-11.066,3.715-22.238,12.16-30.685c16.25-16.249,42.594-16.249,58.844,0
				c9.754,9.754,13.648,23.139,11.693,35.799L91.17,62.355z"/>
			<path fill="#0298E2" d="M118.904,109.656L98.848,89.601l-10.797,10.794l20.051,20.058c2.988,2.983,7.816,2.983,10.803,0
				C121.881,117.473,121.881,112.644,118.904,109.656z"/>
		</g>
		<g>
			<path fill="#2ADC65" d="M91.893,58.722l-7.639-6.84c0.707-1.207,1.141-2.592,1.141-4.09c0-4.475-3.623-8.101-8.102-8.101
				c-4.475,0-8.1,3.626-8.1,8.101c0,1.657,0.504,3.2,1.359,4.482l-11.32,11.32c-1.285-0.856-2.818-1.36-4.479-1.36
				c-1.432,0-2.766,0.404-3.934,1.058L38.023,48.361c1.07-1.377,1.738-3.086,1.738-4.966c0-4.471-3.627-8.105-8.104-8.105
				s-8.096,3.634-8.096,8.105c0,0.811,0.148,1.583,0.377,2.322L9.195,53.607l0.248,3.49l16.002-8.564
				c1.484,1.796,3.697,2.965,6.213,2.965c1.441,0,2.76-0.404,3.934-1.062l12.801,14.934c-1.078,1.377-1.744,3.083-1.744,4.967
				c0,4.475,3.627,8.102,8.105,8.102c4.475,0,8.1-3.627,8.1-8.102c0-1.656-0.504-3.196-1.363-4.486l11.326-11.311
				c1.279,0.852,2.82,1.356,4.477,1.356c1.82,0,3.479-0.618,4.834-1.632l9.043,8.104L91.893,58.722z"/>
		</g>
	</g>
	<path fill="#0298E2" d="M150.922,2.157V29.72c-4.184-1.528-8.203-2.292-12.063-2.292c-9.047,0-15.793,1.88-20.234,5.64
		c-4.443,3.759-6.666,8.796-6.666,15.108v25.873c0,6.676,2.143,11.832,6.424,15.471c4.283,3.639,10.727,5.458,19.332,5.458
		c6.23,0,11.82-1.729,16.764-5.187l1.75,3.8h11.098V2.157H150.922z M150.922,80.865c-2.895,1.73-6.434,2.594-10.615,2.594
		s-7.219-0.724-9.107-2.171c-1.891-1.448-2.834-3.779-2.834-6.997V47.814c0-3.175,1.004-5.458,3.014-6.846
		c2.01-1.387,4.984-2.08,8.928-2.08c3.939,0,7.479,0.744,10.615,2.231V80.865z"/>
	<path fill="#0298E2" d="M229.91,80.744c-0.725-0.924-1.088-2.834-1.088-5.729V49.382c0-7.077-2.018-12.505-6.061-16.285
		c-4.041-3.779-10.523-5.669-19.451-5.669c-8.926,0-15.539,1.82-19.842,5.458c-4.303,3.64-6.455,8.696-6.455,15.169v1.93h15.381
		v-2.533c0-2.774,0.725-4.896,2.172-6.363c1.447-1.468,4.08-2.201,7.9-2.201c6.795-0.04,10.193,2.433,10.193,7.417
		c0,2.413-1.096,4.304-3.287,5.67c-2.193,1.368-6.002,2.916-11.43,4.644c-8.926,2.815-14.967,5.75-18.123,8.807
		c-3.156,3.055-4.734,7.116-4.734,12.183c0,5.065,1.738,9.227,5.217,12.484c3.475,3.257,7.73,4.885,12.754,4.885
		c5.027,0,9.299-0.814,12.816-2.443c3.52-1.628,6.225-3.668,8.115-6.122c1.205,2.654,3.055,4.594,5.547,5.82
		c2.492,1.227,5.973,1.84,10.434,1.84h3.438l0.664-11.942C232.021,82.132,230.633,81.67,229.91,80.744z M212.66,76.945
		c-1.408,2.132-3.338,3.78-5.791,4.946s-4.785,1.748-6.996,1.748c-5.629,0-8.443-2.593-8.443-7.78c0-1.889,0.623-3.588,1.871-5.096
		c1.244-1.507,4.301-3.156,9.166-4.945c4.865-1.789,8.262-3.468,10.193-5.037V76.945z"/>
	<path fill="#0298E2" d="M272.93,94.315c-9.852,0-16.908-1.487-21.17-4.463c-4.262-2.975-6.395-8.584-6.395-16.827V39.249h-8.623
		V28.815h9.105l1.508-20.808h14.416v20.808h15.379v10.434h-15.379v32.63c0,4.021,0.955,6.735,2.865,8.142
		c1.908,1.409,5.578,2.111,11.006,2.111h1.932l-0.605,12.183H272.93z"/>
	<path fill="#0298E2" d="M340.377,80.744c-0.725-0.924-1.086-2.834-1.086-5.729V49.382c0-7.077-2.021-12.505-6.063-16.285
		c-4.039-3.779-10.525-5.669-19.449-5.669c-8.928,0-15.541,1.82-19.844,5.458c-4.305,3.64-6.453,8.696-6.453,15.169v1.93h15.379
		v-2.533c0-2.774,0.725-4.896,2.172-6.363c1.447-1.468,4.08-2.201,7.9-2.201c6.795-0.04,10.193,2.433,10.193,7.417
		c0,2.413-1.096,4.304-3.287,5.67c-2.191,1.368-6.002,2.916-11.43,4.644c-8.926,2.815-14.969,5.75-18.123,8.807
		c-3.158,3.055-4.734,7.116-4.734,12.183c0,5.065,1.738,9.227,5.217,12.484c3.477,3.257,7.729,4.885,12.756,4.885
		c5.025,0,9.297-0.814,12.816-2.443c3.518-1.628,6.221-3.668,8.113-6.122c1.205,2.654,3.055,4.594,5.547,5.82
		c2.492,1.227,5.973,1.84,10.434,1.84h3.439l0.662-11.942C342.488,82.132,341.1,81.67,340.377,80.744z M323.127,76.945
		c-1.408,2.132-3.338,3.78-5.791,4.946s-4.785,1.748-6.994,1.748c-5.631,0-8.445-2.593-8.445-7.78c0-1.889,0.623-3.588,1.871-5.096
		c1.244-1.507,4.301-3.156,9.166-4.945c4.865-1.789,8.262-3.468,10.193-5.037V76.945z"/>
	<path fill="#0298E2" d="M376.709,94.979c-10.215,0-18.637-1.688-25.271-5.066l3.316-11.158c7.559,3.217,14.676,4.825,21.35,4.825
		c5.107,0,8.004-2.271,8.688-6.815c0.08-0.563,0.119-1.085,0.119-1.568c0-3.257-1.83-5.468-5.488-6.635l-14.232-4.462
		c-4.867-1.527-8.314-3.819-10.346-6.876c-2.029-3.055-3.045-6.775-3.045-11.158c0-0.16,0-0.321,0-0.481
		c0.08-12.103,8.363-18.155,24.848-18.155c8.123,0,15.4,1.83,21.834,5.488l-3.859,10.193c-2.051-1.086-4.834-2.06-8.354-2.925
		c-3.52-0.864-6.824-1.296-9.922-1.296c-3.096,0-5.348,0.552-6.754,1.658c-1.408,1.106-2.111,2.996-2.111,5.669
		c0,2.674,1.486,4.474,4.463,5.397l13.391,4.223c5.346,1.688,9.117,4.062,11.309,7.116c2.189,3.057,3.285,7.319,3.285,12.786
		c0,5.47-2.012,10.042-6.029,13.721C389.875,93.139,384.146,94.979,376.709,94.979z"/>
	<path fill="#0298E2" d="M430.404,94.315c-7.439,0-12.947-1.689-16.525-5.066c-3.578-3.377-5.367-9.026-5.367-16.948V2.217h16.404
		V72.06c0,3.619,0.846,6.203,2.533,7.75c1.688,1.548,4.705,2.322,9.047,2.322h2.051l-1.268,12.183H430.404z"/>
	<path fill="#0298E2" d="M443.973,122.843l-1.207-13.57c5.75-1.127,9.941-3.328,12.576-6.604c2.633-3.278,4.652-7.027,6.061-11.249
		l-24.365-62.604h15.801l16.826,43.485l13.451-43.485h16.283l-19.66,56.333c-3.379,9.689-6.455,16.656-9.229,20.897
		c-2.775,4.242-5.348,7.33-7.721,9.258C457.723,119.405,451.451,121.917,443.973,122.843z"/>
</g>
</svg>
